<?xml version="1.0" encoding="UTF-8"?>
<svg xmlns="http://www.w3.org/2000/svg" width="64" height="64" viewBox="0 0 64 64">
  <!-- Background rounded square -->
  <rect x="4" y="4" width="56" height="56" rx="14" fill="#7c3aed"/>
  <!-- Chat bubble -->
  <path d="M16 20a12 12 0 0 1 12-12h8a12 12 0 0 1 12 12v8a12 12 0 0 1-12 12h-5l-7 6c-1 .9-2 .2-1.8-.9L23 40A12 12 0 0 1 16 28v-8z" fill="#ffffff" opacity="0.9"/>
  <!-- Letter Q -->
  <g transform="translate(22,18)">
    <circle cx="10" cy="10" r="8.5" fill="#ffffff"/>
    <circle cx="10" cy="10" r="6" fill="#7c3aed"/>
    <path d="M15 15l3.5 3.5" stroke="#7c3aed" stroke-width="2.5" stroke-linecap="round"/>
  </g>
</svg>